<svg version="1.1" id="Layer_1" xmlns="http://www.w3.org/2000/svg" xmlns:xlink="http://www.w3.org/1999/xlink" x="0px" y="0px"
	 width="100%" viewBox="0 0 50 50" enable-background="new 0 0 50 50" xml:space="preserve">
<path fill="#BE123C" opacity="1.000000" stroke="none" 
	d="
M51.000000,16.000000 
	C51.000000,22.354399 51.000000,28.708796 50.667061,35.333385 
	C46.835335,39.594410 43.373581,43.618698 39.816330,47.556725 
	C38.673809,48.821541 37.279251,49.858692 36.000000,51.000000 
	C29.645601,51.000000 23.291204,51.000000 16.667669,50.667580 
	C10.454767,46.765003 5.199053,42.522152 2.233501,35.995861 
	C2.163652,35.842144 1.426109,35.991829 1.000000,36.000000 
	C1.000000,29.645601 1.000000,23.291204 1.332333,16.667990 
	C5.232675,10.453182 9.474249,5.196101 16.003838,2.233684 
	C16.157501,2.163969 16.008062,1.426179 16.000000,1.000000 
	C22.354399,1.000000 28.708796,1.000000 35.330662,1.331015 
	C41.260956,5.513534 46.663761,9.616977 49.770107,16.007952 
	C49.847404,16.166992 50.575455,16.009737 51.000000,16.000000 
M41.209999,35.524361 
	C41.762001,34.317127 42.400345,33.141232 42.851757,31.897486 
	C45.460201,24.710655 43.567635,18.417494 38.512329,13.108780 
	C33.684834,8.039295 24.956776,6.387687 18.630560,9.504625 
	C12.113305,12.715691 8.034476,17.901255 7.995516,25.606762 
	C7.957281,33.168629 12.642954,40.477280 19.165808,42.887161 
	C26.983131,45.775291 35.071186,43.275143 41.209999,35.524361 
z"/>
<path fill="#000000" opacity="1.000000" stroke="none" 
	d="
M51.000000,15.527336 
	C50.575455,16.009737 49.847404,16.166992 49.770107,16.007952 
	C46.663761,9.616977 41.260956,5.513534 35.799065,1.331015 
	C40.924522,1.000000 45.849045,1.000000 51.000000,1.000000 
	C51.000000,5.683317 51.000000,10.368995 51.000000,15.527336 
z"/>
<path fill="#000000" opacity="1.000000" stroke="none" 
	d="
M36.472664,51.000000 
	C37.279251,49.858692 38.673809,48.821541 39.816330,47.556725 
	C43.373581,43.618698 46.835335,39.594410 50.667061,35.801788 
	C51.000000,40.924522 51.000000,45.849041 51.000000,51.000000 
	C46.316685,51.000000 41.631004,51.000000 36.472664,51.000000 
z"/>
<path fill="#000000" opacity="1.000000" stroke="none" 
	d="
M15.527336,1.000000 
	C16.008062,1.426179 16.157501,2.163969 16.003838,2.233684 
	C9.474249,5.196101 5.232675,10.453182 1.332333,16.199587 
	C1.000000,11.075478 1.000000,6.150956 1.000000,1.000000 
	C5.683317,1.000000 10.368995,1.000000 15.527336,1.000000 
z"/>
<path fill="#000000" opacity="1.000000" stroke="none" 
	d="
M1.000000,36.472664 
	C1.426109,35.991829 2.163652,35.842144 2.233501,35.995861 
	C5.199053,42.522152 10.454767,46.765003 16.199266,50.667580 
	C11.075480,51.000000 6.150958,51.000000 1.000000,51.000000 
	C1.000000,46.316685 1.000000,41.631004 1.000000,36.472664 
z"/>
<path fill="#E11D48" opacity="1.000000" stroke="none" 
	d="
M41.032516,35.853516 
	C35.071186,43.275143 26.983131,45.775291 19.165808,42.887161 
	C12.642954,40.477280 7.957281,33.168629 7.995516,25.606762 
	C8.034476,17.901255 12.113305,12.715691 18.630560,9.504625 
	C24.956776,6.387687 33.684834,8.039295 38.512329,13.108780 
	C43.567635,18.417494 45.460201,24.710655 42.851757,31.897486 
	C42.400345,33.141232 41.762001,34.317127 41.032516,35.853516 
M15.386001,21.272089 
	C15.587797,25.175177 15.789593,29.078262 16.231331,33.457275 
	C16.523392,33.654362 16.815451,33.851444 17.557999,34.762791 
	C23.703821,34.500446 29.849646,34.238102 36.777950,33.609383 
	C36.519531,29.395422 36.261116,25.181459 35.693378,20.597424 
	C35.472908,20.362175 35.233765,20.147753 34.979256,19.531382 
	C34.979256,19.531382 34.945229,19.109964 34.471611,18.670193 
	C32.474133,18.090738 30.476652,17.511284 27.930267,17.705969 
	C26.694012,17.863609 25.457756,18.021252 23.647743,17.848598 
	C21.446064,18.267124 19.244383,18.685650 17.025444,19.656197 
	C16.998053,19.838245 16.970659,20.020292 17.005020,20.333220 
	C17.005020,20.333220 17.026499,20.476336 16.497501,20.439260 
	C16.393133,20.581932 16.288763,20.724606 15.386001,21.272089 
z"/>
<path fill="#FFFFFF" opacity="1.000000" stroke="none" 
	d="
M16.943268,20.202339 
	C16.970659,20.020292 16.998053,19.838245 17.448803,19.335640 
	C19.988609,18.736353 22.105055,18.457624 24.221500,18.178894 
	C25.457756,18.021252 26.694012,17.863609 28.244478,17.772652 
	C30.687536,18.262880 32.816383,18.686422 34.945229,19.109964 
	C34.945229,19.109964 34.979256,19.531382 34.510277,19.762733 
	C28.341951,20.063503 22.642611,20.132921 16.943268,20.202339 
z"/>
<path fill="#CA1B41" opacity="1.000000" stroke="none" 
	d="
M16.974144,20.267780 
	C22.642611,20.132921 28.341951,20.063503 34.508621,19.974121 
	C35.233765,20.147753 35.472908,20.362175 35.876900,20.787449 
	C36.060421,20.977476 36.048332,21.034910 35.687462,21.011547 
	C34.845905,21.025656 34.365227,21.063126 33.427422,21.065903 
	C28.025850,21.083122 23.081406,21.135033 17.874107,21.130703 
	C17.440071,21.021456 17.268887,20.968451 17.093655,20.803436 
	C17.089607,20.691427 17.026499,20.476336 17.026499,20.476336 
	C17.026499,20.476336 17.005020,20.333220 16.974144,20.267780 
z"/>
<path fill="#F0BCC7" opacity="1.000000" stroke="none" 
	d="
M35.995468,33.975758 
	C29.849646,34.238102 23.703821,34.500446 17.298271,34.385445 
	C17.038542,34.008102 16.998232,34.077141 17.465607,34.045109 
	C23.594589,33.944271 29.256195,33.875462 35.207260,33.855869 
	C35.688755,33.942989 35.880795,33.980888 36.042103,34.028381 
	C36.011375,34.037983 35.995468,33.975758 35.995468,33.975758 
z"/>
<path fill="#DD7189" opacity="1.000000" stroke="none" 
	d="
M17.073027,34.028316 
	C16.815451,33.851444 16.523392,33.654362 16.114431,32.758862 
	C16.059820,28.329391 16.122108,24.598333 16.184395,20.867277 
	C16.288763,20.724606 16.393133,20.581932 16.762001,20.457798 
	C17.026499,20.476336 17.089607,20.691427 17.059042,21.273808 
	C17.115271,25.325293 17.202066,28.794397 17.225105,32.562889 
	C17.106979,33.267231 17.052605,33.672184 16.998232,34.077141 
	C16.998232,34.077141 17.038542,34.008102 17.073027,34.028316 
z"/>
<path fill="#FFFFFF" opacity="1.000000" stroke="none" 
	d="
M36.031559,20.972488 
	C36.261116,25.181459 36.519531,29.395422 36.386711,33.792572 
	C35.995468,33.975758 36.011375,34.037983 36.010834,33.565811 
	C36.022976,29.074060 36.035656,25.054485 36.048332,21.034910 
	C36.048332,21.034910 36.060421,20.977476 36.031559,20.972488 
z"/>
<path fill="#FAD5DD" opacity="1.000000" stroke="none" 
	d="
M15.785198,21.069683 
	C16.122108,24.598333 16.059820,28.329391 15.994461,32.520897 
	C15.789593,29.078262 15.587797,25.175177 15.785198,21.069683 
z"/>
<path fill="#CE2B4E" opacity="1.000000" stroke="none" 
	d="
M34.708420,18.890079 
	C32.816383,18.686422 30.687536,18.262880 28.518930,17.385582 
	C30.476652,17.511284 32.474133,18.090738 34.708420,18.890079 
z"/>
<path fill="#CD2B4E" opacity="1.000000" stroke="none" 
	d="
M23.934622,18.013746 
	C22.105055,18.457624 19.988609,18.736353 17.457434,19.059629 
	C19.244383,18.685650 21.446064,18.267124 23.934622,18.013746 
z"/>
<path fill="#D34361" opacity="1.000000" stroke="none" 
	d="
M35.687462,21.011547 
	C36.035656,25.054485 36.022976,29.074060 36.041565,33.556210 
	C35.880795,33.980888 35.688755,33.942989 35.064018,33.693165 
	C34.402107,33.305092 34.173012,33.128784 34.003857,32.715881 
	C34.063671,32.479446 34.017414,31.993870 34.128147,31.542019 
	C34.183571,28.233772 34.128262,25.377377 34.111343,22.280067 
	C34.072582,21.723124 33.984188,21.410269 33.884544,21.100594 
	C34.365227,21.063126 34.845905,21.025656 35.687462,21.011547 
z"/>
<path fill="#D48F9F" opacity="1.000000" stroke="none" 
	d="
M33.427422,21.065903 
	C33.984188,21.410269 34.072582,21.723124 33.751007,22.343578 
	C33.141609,22.770977 32.930931,22.893955 32.531578,23.014872 
	C32.342899,23.012810 31.984606,22.894314 31.633362,22.685177 
	C27.151400,22.343609 23.020681,22.211180 18.699205,22.067295 
	C18.508450,22.055843 18.130379,22.111868 18.121399,21.880562 
	C18.112419,21.649256 18.136961,21.186945 18.136961,21.186945 
	C23.081406,21.135033 28.025850,21.083122 33.427422,21.065903 
z"/>
<path fill="#E55272" opacity="1.000000" stroke="none" 
	d="
M17.874107,21.130703 
	C18.136961,21.186945 18.112419,21.649256 18.069309,22.327650 
	C18.087414,26.020002 18.148628,29.033958 18.087952,32.066071 
	C17.966059,32.084221 17.746151,31.972912 17.639791,32.058090 
	C17.533432,32.143272 17.288860,32.263504 17.288860,32.263504 
	C17.202066,28.794397 17.115271,25.325293 17.063091,21.385815 
	C17.268887,20.968451 17.440071,21.021456 17.874107,21.130703 
z"/>
<path fill="#DB1944" opacity="1.000000" stroke="none" 
	d="
M17.225105,32.562889 
	C17.288860,32.263504 17.533432,32.143272 17.901943,32.419777 
	C23.494982,32.781628 28.719513,32.866974 33.944042,32.952324 
	C34.173012,33.128784 34.402107,33.305092 34.774559,33.643948 
	C29.256195,33.875462 23.594589,33.944271 17.465607,34.045109 
	C17.052605,33.672184 17.106979,33.267231 17.225105,32.562889 
z"/>
<path fill="#F5ECEE" opacity="1.000000" stroke="none" 
	d="
M34.003857,32.715885 
	C28.719513,32.866974 23.494982,32.781628 18.008301,32.334595 
	C17.746151,31.972912 17.966059,32.084221 18.352100,32.023388 
	C18.915628,31.944698 19.093115,31.926846 19.713875,31.858593 
	C24.341967,31.808989 28.526787,31.809782 33.037392,31.861166 
	C33.581253,31.939127 33.799332,31.966497 34.017414,31.993870 
	C34.017414,31.993870 34.063671,32.479446 34.003857,32.715885 
z"/>
<path fill="#ECC5CD" opacity="1.000000" stroke="none" 
	d="
M34.128147,31.542019 
	C33.799332,31.966497 33.581253,31.939127 33.113289,31.429016 
	C32.815689,28.303162 32.767975,25.660048 32.720257,23.016933 
	C32.930931,22.893955 33.141609,22.770977 33.712616,22.584488 
	C34.128262,25.377377 34.183571,28.233772 34.128147,31.542019 
z"/>
<path fill="#E11D48" opacity="1.000000" stroke="none" 
	d="
M32.531578,23.014872 
	C32.767975,25.660048 32.815689,28.303162 32.787506,31.378426 
	C28.526787,31.809782 24.341967,31.808989 19.688034,31.627312 
	C19.218922,31.446428 19.276503,30.984470 19.344543,30.864296 
	C19.477455,30.454576 19.398485,30.207321 19.106594,29.577538 
	C19.083624,27.434542 19.129730,25.716364 19.327139,23.876472 
	C19.670408,23.579126 19.839222,23.383516 20.442514,23.107079 
	C24.594963,22.995590 28.289785,22.944952 31.984606,22.894314 
	C31.984606,22.894314 32.342899,23.012810 32.531578,23.014872 
z"/>
<path fill="#EAA7B5" opacity="1.000000" stroke="none" 
	d="
M31.633362,22.685177 
	C28.289785,22.944952 24.594963,22.995590 20.225266,23.060751 
	C19.550390,23.075272 19.107925,23.114822 19.045525,22.857468 
	C18.952070,22.426327 18.921015,22.252537 18.889961,22.078749 
	C23.020681,22.211180 27.151400,22.343609 31.633362,22.685177 
z"/>
<path fill="#FAFAFA" opacity="1.000000" stroke="none" 
	d="
M18.699205,22.067295 
	C18.921015,22.252537 18.952070,22.426327 19.012928,23.082121 
	C19.042734,23.564127 19.175837,23.998188 19.175837,23.998188 
	C19.129730,25.716364 19.083624,27.434542 19.053125,29.831188 
	C19.137991,30.667929 19.207247,30.826200 19.276503,30.984470 
	C19.276503,30.984470 19.218922,31.446428 19.244762,31.677710 
	C19.093115,31.926846 18.915628,31.944698 18.473991,32.005234 
	C18.148628,29.033958 18.087414,26.020002 18.078289,22.558956 
	C18.130379,22.111868 18.508450,22.055843 18.699205,22.067295 
z"/>
<path fill="#D9254C" opacity="1.000000" stroke="none" 
	d="
M19.344543,30.864296 
	C19.207247,30.826200 19.137991,30.667929 19.122204,30.256008 
	C19.398485,30.207321 19.477455,30.454576 19.344543,30.864296 
z"/>
<path fill="#D9254C" opacity="1.000000" stroke="none" 
	d="
M19.327139,23.876472 
	C19.175837,23.998188 19.042734,23.564127 19.075329,23.339474 
	C19.107925,23.114822 19.550390,23.075272 19.767639,23.121597 
	C19.839222,23.383516 19.670408,23.579126 19.327139,23.876472 
z"/>
</svg>